<svg width="81" height="81" viewBox="0 0 81 81" fill="none" xmlns="http://www.w3.org/2000/svg">
<path d="M80.5 0.5H0.5V80.5H80.5V0.5Z" fill="#FF7C00"/>
<path d="M73.7956 7.2041H7.20471V73.7953H73.7956V7.2041Z" fill="#261300"/>
<path d="M60.4588 32.5449H54.1419C53.9792 32.5449 53.8473 32.6777 53.8473 32.8414V58.9359C53.8473 59.0997 53.9792 59.2324 54.1419 59.2324H60.4588C60.6215 59.2324 60.7535 59.0997 60.7535 58.9359V32.8414C60.7535 32.6777 60.6215 32.5449 60.4588 32.5449Z" fill="#FF7C00"/>
<path d="M57.3001 29.0183C59.3271 29.0183 60.9703 27.4372 60.9703 25.4867C60.9703 23.5362 59.3271 21.9551 57.3001 21.9551C55.2731 21.9551 53.6299 23.5362 53.6299 25.4867C53.6299 27.4372 55.2731 29.0183 57.3001 29.0183Z" fill="#FF7C00"/>
<path fill-rule="evenodd" clip-rule="evenodd" d="M40.195 49.9013L42.7848 58.5301C42.9192 59.0399 43.1828 59.1647 43.5395 59.1595H50.1717C50.6835 59.1647 50.7197 59.0086 50.6421 58.6654L39.6884 21.9031C39.6677 21.8355 39.616 21.7887 39.5127 21.7887L30.3268 21.7627C29.965 21.7627 29.9598 21.9499 29.9908 22.3036C30.1045 23.5831 30.0425 24.3009 29.7737 25.3047L20.0761 58.6862C19.9727 59.0034 19.9986 59.1595 20.4121 59.1647L26.6721 59.1595C27.3338 59.1387 27.37 58.9566 27.4837 58.6238L29.6548 49.9013H40.195ZM38.8562 43.1917H31.2521L34.9378 28.1914L38.8562 43.1917Z" fill="#FF7C00"/>
</svg>
